<svg width="30" height="30" viewBox="0 0 30 30" fill="none" xmlns="http://www.w3.org/2000/svg">
<path d="M30 27C30 28.6569 28.6569 30 27 30C25.3431 30 24 28.6569 24 27V24C24 20.6863 21.3137 18 18 18H15C13.3431 18 12 16.6569 12 15C12 13.3431 13.3431 12 15 12H24C27.3137 12 30 14.6863 30 18V27ZM30 6C30 7.65685 28.6569 9 27 9H25.5C24.6716 9 24 8.32843 24 7.5C24 6.67157 23.3284 6 22.5 6H12C8.68629 6 6 8.68629 6 12V18C6 21.3137 8.68629 24 12 24H15C16.6569 24 18 25.3431 18 27C18 28.6569 16.6569 30 15 30H6C2.68629 30 0 27.3137 0 24V6C0 2.68629 2.68629 0 6 0H25.5C27.9853 0 30 2.01472 30 4.5V6Z" fill="#7167CB"/>
</svg>
